 Long Time Dead 2002 DVDRip Xvid fasamoo LKRG


RIPPER                           : fasamoo
Format                           : AVI
Format/Info                      : Audio Video Interleave
File size                        : 700 MiB
Duration                         : 1h 33mn
Overall bit rate                 : 1 043 Kbps
Writing application              : VirtualDubMod 1.5.4.1 (build 2178/release)
Writing library                  : VirtualDubMod build 2178/release
Language                         : English
Subtitles                        : English(*.srt)
                                 : English,Japanese,Chinese,Korean,Indonesian,Thai(*.idx,*.sub)
Genre                            : Horror | Thriller       

Video
ID                               : 0
Format                           : MPEG-4 Visual
Format profile                   : Advanced Simple@L5
Format settings, BVOP            : Yes
Format settings, QPel            : No
Format settings, GMC             : No warppoints
Format settings, Matrix          : Custom
Codec ID                         : XVID
Codec ID/Hint                    : XviD
Duration                         : 1h 33mn
Bit rate                         : 914 Kbps
Width                            : 720 pixels
Height                           : 368 pixels
Display aspect ratio             : 1.957
Frame rate                       : 23.976 fps
Color space                      : YUV
Chroma subsampling               : 4:2:0
Bit depth                        : 8 bits
Scan type                        : Progressive
Bits/(Pixel*Frame)               : 0.144
Stream size                      : 614 MiB (88%)
Writing library                  : XviD 1.2.1 (UTC 2008-12-04)

Audio
ID                               : 1
Format                           : MPEG Audio
Format version                   : Version 1
Format profile                   : Layer 3
Mode                             : Joint stereo
Mode extension                   : MS Stereo
Codec ID                         : 55
Codec ID/Hint                    : MP3
Duration                         : 1h 33mn
Bit rate mode                    : Variable
Bit rate                         : 116 Kbps
Nominal bit rate                 : 128 Kbps
Channel(s)                       : 2 channels
Sampling rate                    : 48.0 KHz
Stream size                      : 78.2 MiB (11%)
Alignment                        : Aligned on interleaves
Interleave, duration             : 24 ms (0.58 video frame)
Interleave, preload duration     : 158 ms
Writing library                  : LAME3.98r
Encoding settings                : -m j -V 4 -q 2 -lowpass 17 --abr 128

PLOT

A group of British college students who are close friends embark on a night of intense partying including alcohol and drugs, and while under the influence, intent on a bit of fun, try to establish a link with the spirit world using a homemade Ouija board. However, fun is the last thing on their minds when the Ouija board spells out the words "All Die", and they give up on the board before closing the link to the spirit world and, unknown to them, unleash something evil into their world, and it isn't long before one of them is murdered by an unseen force. Soon they all find themselves terrified for their lives, as the spirit they have let out begins to kill them off, one by one.


                                 IMBD
                     
                 http://www.imdb.com/title/tt0251806/
 
http://leetleech.org/images/15843347977036861869.png 
http://leetleech.org/images/82107932824737918237.png 
http://leetleech.org/images/32317980278968797112.png 
http://leetleech.org/images/13607217056327609340.png 
http://leetleech.org/images/75213844277996867178.png 
http://leetleech.org/images/04598834244677902496.png